<mxfile host="app.diagrams.net" modified="2024-05-26T18:46:12.022Z" agent="Mozilla/5.0 (Windows NT 10.0; Win64; x64) AppleWebKit/537.36 (KHTML, like Gecko) Chrome/125.0.0.0 Safari/537.36" etag="d9w04MbzRD54PKXrZRlw" version="24.4.8" type="github">
  <diagram name="PÃ¡gina-1" id="MH4aZnzgVyU5nDW7-veY">
    <mxGraphModel dx="10760" dy="6900" grid="0" gridSize="10" guides="1" tooltips="1" connect="1" arrows="1" fold="1" page="0" pageScale="1" pageWidth="827" pageHeight="1169" math="0" shadow="0">
      <root>
        <mxCell id="0" />
        <mxCell id="1" parent="0" />
      </root>
    </mxGraphModel>
  </diagram>
</mxfile>
